<svg xmlns="http://www.w3.org/2000/svg" version="1.1" xmlns:xlink="http://www.w3.org/1999/xlink" xmlns:svgjs="http://svgjs.dev/svgjs" width="1500" height="1500" viewBox="0 0 1500 1500"><rect width="1500" height="1500" fill="#000000"></rect><g transform="matrix(0.6666666666666666,0,0,0.6666666666666666,250.636076532269,397.6188933873145)"><svg viewBox="0 0 350 247" data-background-color="#ffffff" preserveAspectRatio="xMidYMid meet" height="1058" width="1500" xmlns="http://www.w3.org/2000/svg" xmlns:xlink="http://www.w3.org/1999/xlink"><g id="tight-bounds" transform="matrix(1,0,0,1,-0.22262678629414268,-0.09999999999999432)"><svg viewBox="0 0 350.4452535725883 247.2" height="247.2" width="350.4452535725883"><g><svg viewBox="0 0 395.52 278.9952011141969" height="247.2" width="350.4452535725883"><g transform="matrix(1,0,0,1,0,172.43022702093265)"><svg viewBox="0 0 395.52 106.56497409326424" height="106.56497409326424" width="395.52"><g id="textblocktransform"><svg viewBox="0 0 395.52 106.56497409326424" height="106.56497409326424" width="395.52" id="textblock"><g><svg viewBox="0 0 395.52 106.56497409326424" height="106.56497409326424" width="395.52"><g transform="matrix(1,0,0,1,0,0)"><svg width="395.52" viewBox="1.75 -39 192.99 52" height="106.56497409326424" data-palette-color="#197693"><path d="M11.05-14.35L11.05-8Q11.05-5.9 11.15-4.7 11.25-3.5 11.68-2.88 12.1-2.25 12.9-2.05 13.7-1.85 15.15-1.75L15.15-1.75 15.15 0 1.85 0 1.85-1.75Q3.3-1.85 4.15-2.05 5-2.25 5.45-2.85 5.9-3.45 6.03-4.58 6.15-5.7 6.15-7.6L6.15-7.6 6.15-14Q6.15-16.85 6.08-18.75 6-20.65 5.8-21.35L5.8-21.35Q5.65-22 5.45-22.38 5.25-22.75 4.8-22.98 4.35-23.2 3.63-23.28 2.9-23.35 1.75-23.35L1.75-23.35 1.75-25.1 9.9-27 10.55-22 10.8-22Q13.05-24.55 15.53-25.78 18-27 21-27L21-27Q24.15-27 26.3-25.73 28.45-24.45 29.3-22.05L29.3-22.05 29.5-22.05Q31.35-24.4 34-25.7 36.65-27 39.65-27L39.65-27Q42-27 43.93-26.23 45.85-25.45 46.85-24.1L46.85-24.1Q47.75-22.95 48.13-21.08 48.5-19.2 48.5-15.95L48.5-15.95 48.5-8Q48.5-5.95 48.63-4.75 48.75-3.55 49.15-2.9 49.55-2.25 50.38-2.05 51.2-1.85 52.65-1.75L52.65-1.75 52.65 0 39.35 0 39.35-1.75Q40.75-1.8 41.6-2.02 42.45-2.25 42.9-2.88 43.35-3.5 43.48-4.6 43.6-5.7 43.6-7.6L43.6-7.6 43.6-13.9Q43.6-16.75 43.3-18.73 43-20.7 42.3-21.93 41.6-23.15 40.48-23.7 39.35-24.25 37.75-24.25L37.75-24.25Q35.55-24.25 33.63-23.03 31.7-21.8 30.6-19.75L30.6-19.75Q30.35-19.25 30.18-18.78 30-18.3 29.9-17.73 29.8-17.15 29.78-16.35 29.75-15.55 29.75-14.35L29.75-14.35 29.75-8Q29.75-5.95 29.85-4.75 29.95-3.55 30.38-2.9 30.8-2.25 31.65-2.05 32.5-1.85 33.95-1.75L33.95-1.75 33.95 0 20.65 0 20.65-1.75Q22.05-1.85 22.9-2.05 23.75-2.25 24.18-2.85 24.6-3.45 24.73-4.58 24.85-5.7 24.85-7.6L24.85-7.6 24.85-13.9Q24.85-16.8 24.55-18.78 24.25-20.75 23.58-21.98 22.9-23.2 21.8-23.73 20.7-24.25 19.1-24.25L19.1-24.25Q16.85-24.25 14.88-23.03 12.9-21.8 11.9-19.75L11.9-19.75Q11.65-19.25 11.48-18.78 11.3-18.3 11.2-17.73 11.1-17.15 11.08-16.35 11.05-15.55 11.05-14.35L11.05-14.35ZM77.65-16.4L66.75 7.85Q64.45 13 59.6 13L59.6 13Q56.45 13 56.45 10.65L56.45 10.65Q56.45 9.4 57.32 8.83 58.2 8.25 60.55 7.85L60.55 7.85Q61.6 7.7 62.35 7.43 63.1 7.15 63.7 6.73 64.3 6.3 64.77 5.65 65.25 5 65.7 4.05L65.7 4.05 67.45 0.55 57.85-20.3Q57.2-21.7 56.72-22.53 56.25-23.35 55.72-23.83 55.2-24.3 54.55-24.48 53.9-24.65 52.9-24.75L52.9-24.75 52.9-26.5 66.15-26.5 66.15-24.75Q62.8-24.75 62.8-23.1L62.8-23.1Q62.8-22.45 63.2-21.05 63.6-19.65 64.2-18.2L64.2-18.2 69.7-4.9 69.95-4.9 74.5-16.15Q75.15-17.8 75.57-18.85 76-19.9 76.22-20.58 76.45-21.25 76.52-21.7 76.6-22.15 76.6-22.55L76.6-22.55Q76.6-23.85 75.87-24.3 75.15-24.75 73.1-24.75L73.1-24.75 73.1-26.5 84.1-26.5 84.1-24.75Q83.15-24.75 82.5-24.5 81.85-24.25 81.17-23.38 80.5-22.5 79.67-20.85 78.85-19.2 77.65-16.4L77.65-16.4ZM118.2-35.4L119.1-38.5 120.5-38.5 120.95-27 119.1-27Q118-31.4 114.85-33.9 111.7-36.4 107.25-36.4L107.25-36.4Q104.2-36.4 101.8-35.2 99.4-34 97.75-31.75 96.1-29.5 95.22-26.25 94.35-23 94.35-18.9L94.35-18.9Q94.35-10.85 97.7-6.53 101.05-2.2 107.4-2.2L107.4-2.2Q117.05-2.2 119.8-12.45L119.8-12.45 121.85-12.45 121.85 0 120.1 0 118.95-3.95Q113.7 0.5 106.25 0.5L106.25 0.5Q102 0.5 98.57-0.85 95.15-2.2 92.72-4.67 90.3-7.15 88.97-10.7 87.65-14.25 87.65-18.6L87.65-18.6Q87.65-23.15 89.05-26.9 90.45-30.65 92.97-33.35 95.5-36.05 99.02-37.52 102.55-39 106.8-39L106.8-39Q109.8-39 112.45-38.15 115.1-37.3 118.2-35.4L118.2-35.4ZM142.19-10.85L142.19-14.8Q139.34-13.7 137.37-12.65 135.39-11.6 134.19-10.55 132.99-9.5 132.47-8.45 131.94-7.4 131.94-6.3L131.94-6.3Q131.94-4.65 133.04-3.6 134.14-2.55 135.94-2.55L135.94-2.55Q137.24-2.55 138.37-3.2 139.49-3.85 140.34-4.98 141.19-6.1 141.69-7.63 142.19-9.15 142.19-10.85L142.19-10.85ZM134.99-13.8L142.19-16.95 142.19-19Q142.19-25.1 136.99-25.1L136.99-25.1Q136.14-25.1 135.54-24.95 134.94-24.8 134.54-24.45 134.14-24.1 133.82-23.45 133.49-22.8 133.19-21.85L133.19-21.85Q132.64-20.4 132.12-19.93 131.59-19.45 130.59-19.45L130.59-19.45Q128.09-19.45 128.09-21.95L128.09-21.95Q128.09-24.35 130.64-25.68 133.19-27 137.89-27L137.89-27Q142.89-27 144.99-25.23 147.09-23.45 147.09-19.2L147.09-19.2 147.09-8Q147.09-2.3 149.34-2.3L149.34-2.3Q150.04-2.3 150.69-2.48 151.34-2.65 151.79-3.4L151.79-3.4 152.49-2.2Q151.89-1.05 150.29-0.28 148.69 0.5 146.94 0.5L146.94 0.5Q144.74 0.5 143.67-0.9 142.59-2.3 142.59-4.85L142.59-4.85 142.34-4.85Q141.04-2.4 138.74-0.98 136.44 0.45 133.64 0.45L133.64 0.45Q130.49 0.45 128.69-1.15 126.89-2.75 126.89-5.45L126.89-5.45Q126.89-6.65 127.32-7.75 127.74-8.85 128.69-9.85 129.64-10.85 131.19-11.83 132.74-12.8 134.99-13.8L134.99-13.8ZM163.54-9.65L163.54-7.95Q163.54-5.9 163.64-4.7 163.74-3.5 164.16-2.88 164.59-2.25 165.39-2.05 166.19-1.85 167.64-1.75L167.64-1.75 167.64 0 154.34 0 154.34-1.75Q155.79-1.8 156.64-2.02 157.49-2.25 157.94-2.85 158.39-3.45 158.51-4.58 158.64-5.7 158.64-7.6L158.64-7.6 158.64-13.45Q158.64-16.85 158.56-18.75 158.49-20.65 158.06-21.55 157.64-22.45 156.74-22.63 155.84-22.8 154.24-22.8L154.24-22.8 154.24-24.55 162.99-26.45 163.69-20.25 163.89-20.25Q164.54-21.75 165.51-23 166.49-24.25 167.64-25.13 168.79-26 170.04-26.5 171.29-27 172.59-27L172.59-27Q174.19-27 175.12-26.23 176.04-25.45 176.04-24.15L176.04-24.15Q176.04-22.95 175.29-22.28 174.54-21.6 173.14-21.6L173.14-21.6Q172.34-21.6 171.79-21.8 171.24-22 170.81-22.23 170.39-22.45 170.01-22.65 169.64-22.85 169.19-22.85L169.19-22.85Q167.84-22.85 166.49-21.13 165.14-19.4 164.39-16.75L164.39-16.75Q163.99-15.3 163.76-13.48 163.54-11.65 163.54-9.65L163.54-9.65ZM181.29-23.35L178.29-23.35 178.29-25.2Q180.94-26.75 182.44-28.3 183.94-29.85 184.74-32L184.74-32 186.19-32 186.19-25.7 192.89-25.7 192.89-23.35 186.19-23.35 186.19-8.15Q186.19-6.4 186.36-5.2 186.54-4 186.94-3.28 187.34-2.55 187.99-2.25 188.64-1.95 189.64-1.95L189.64-1.95Q190.89-1.95 191.76-2.48 192.64-3 193.49-4.25L193.49-4.25 194.74-3.3Q194.04-1.45 192.31-0.48 190.59 0.5 188.04 0.5L188.04 0.5Q184.74 0.5 183.01-1.07 181.29-2.65 181.29-5.6L181.29-5.6 181.29-23.35Z" opacity="1" transform="matrix(1,0,0,1,0,0)" fill="#ffffff" class="wordmark-text-0" data-fill-palette-color="primary" id="text-0"></path></svg></g></svg></g></svg></g></svg></g><g transform="matrix(1,0,0,1,124.12360290155439,0)"><svg viewBox="0 0 147.2727941968912 147.2727941968912" height="147.2727941968912" width="147.2727941968912"><g><svg></svg></g><g id="icon-0"><svg viewBox="0 0 147.2727941968912 147.2727941968912" height="147.2727941968912" width="147.2727941968912"><g><path transform="scale(1.47273,1.47273)" d="M30 100c-16.569 0-30-13.431-30-30v-40c0-16.569 13.431-30 30-30h40c16.569 0 30 13.431 30 30v40c0 16.569-13.431 30-30 30z" fill="#ffffff" fill-rule="nonzero" stroke="none" stroke-width="1" stroke-linecap="butt" stroke-linejoin="miter" stroke-miterlimit="10" stroke-dasharray="" stroke-dashoffset="0" font-family="none" font-weight="none" font-size="none" text-anchor="none" style="mix-blend-mode: normal" data-fill-palette-color="accent"></path></g><g transform="matrix(1,0,0,1,29.454558839378244,38.10239272400611)"><svg viewBox="0 0 88.36367651813471 71.06800874887898" height="71.06800874887898" width="88.36367651813471"><g><svg xmlns="http://www.w3.org/2000/svg" xml:space="preserve" viewBox="0 9.786 100.00034525290006 80.42699999999999" id="dxe-0" width="88.36367651813471" height="71.06800874887898" x="0" y="0" class="icon-dxe-0" data-fill-palette-color="quaternary"><path d="M49.942 52.994l40.653-1.465c-2.527-4.177-3.159-7.831-7.989-8.461q-10.843-1.41-21.688-2.826l-42.075-5.48c1.258 2.03 20.881 18.599 31.099 18.232M0 9.786c4.391 7.257 26.615 23.072 32.953 23.886q25.994 3.346 51.986 6.688c-3.393-5.607-4.18-9.35-10.312-10.959L47.91 22.378Q23.955 16.084 0 9.786M63.108 66.207l31.241-6.66c-2.028-3.346-2.034-5.359-5.827-5.189q-9.236 0.411-18.471 0.822-17.015 0.76-34.028 1.518c1.275 1.366 18.917 11.249 27.085 9.509M87.682 90.213c5.725-3.719 7.262-7.721 10.519-13.807 3.651-6.824 1.257-7.844-2.821-14.596-0.417-0.688-5.842 0.232-6.453 0.904-0.745 0.818-0.248 5.455-0.294 6.496zM86.35 63.447c-3.795 0.809-8.604 0.191-9.572 4.229l-4.12 17.211c9.246-2.209 13.37-13.305 13.692-21.44M74.666 66.121c-9.148 1.953-8.956 4.611-12.879 13.18 6.22-0.59 12.024-7.36 12.879-13.18" fill="#000000" data-fill-palette-color="quaternary"></path></svg></g></svg></g></svg></g></svg></g><g></g></svg></g><defs></defs></svg><rect width="350.4452535725883" height="247.2" fill="none" stroke="none" visibility="hidden"></rect></g></svg></g></svg>