<?xml version="1.0" encoding="UTF-8"?>
<svg version="1.1" xmlns="http://www.w3.org/2000/svg" width="32" height="31">
<path d="M0 0 C3.33388318 0.16951948 4.94441987 0.43192871 7.6875 2.1875 C8.3475 1.5275 9.0075 0.8675 9.6875 0.1875 C13.1875 -0.0625 13.1875 -0.0625 16.6875 0.1875 C18.6875 2.1875 18.6875 2.1875 18.6875 5.1875 C20.0075 5.5175 21.3275 5.8475 22.6875 6.1875 C22.71439216 7.66656892 22.73384621 9.14577483 22.75 10.625 C22.76160156 11.44871094 22.77320313 12.27242187 22.78515625 13.12109375 C22.6875 15.1875 22.6875 15.1875 21.6875 16.1875 C21.6875 21.1375 21.6875 26.0875 21.6875 31.1875 C11.7875 31.1875 1.8875 31.1875 -8.3125 31.1875 C-8.3125 26.2375 -8.3125 21.2875 -8.3125 16.1875 C-8.6425 15.8575 -8.9725 15.5275 -9.3125 15.1875 C-9.38429964 13.66821962 -9.39642007 12.14582518 -9.375 10.625 C-9.36597656 9.79871094 -9.35695313 8.97242188 -9.34765625 8.12109375 C-9.33605469 7.48300781 -9.32445312 6.84492187 -9.3125 6.1875 C-7.9925 5.8575 -6.6725 5.5275 -5.3125 5.1875 C-5.168125 4.548125 -5.02375 3.90875 -4.875 3.25 C-3.95460706 -0.12477413 -3.71781509 0.21044236 0 0 Z M-1.3125 3.1875 C0.0075 4.1775 1.3275 5.1675 2.6875 6.1875 C2.6875 5.1975 2.6875 4.2075 2.6875 3.1875 C1.3675 3.1875 0.0475 3.1875 -1.3125 3.1875 Z M10.6875 3.1875 C10.6875 4.1775 10.6875 5.1675 10.6875 6.1875 C12.0075 5.1975 13.3275 4.2075 14.6875 3.1875 C13.3675 3.1875 12.0475 3.1875 10.6875 3.1875 Z M-6.3125 10.1875 C-6.3125 10.8475 -6.3125 11.5075 -6.3125 12.1875 C-2.6825 12.1875 0.9475 12.1875 4.6875 12.1875 C4.6875 11.5275 4.6875 10.8675 4.6875 10.1875 C1.0575 10.1875 -2.5725 10.1875 -6.3125 10.1875 Z M8.6875 10.1875 C8.6875 10.8475 8.6875 11.5075 8.6875 12.1875 C12.3175 12.1875 15.9475 12.1875 19.6875 12.1875 C19.6875 11.5275 19.6875 10.8675 19.6875 10.1875 C16.0575 10.1875 12.4275 10.1875 8.6875 10.1875 Z M-4.3125 15.1875 C-4.3125 19.4775 -4.3125 23.7675 -4.3125 28.1875 C-1.3425 28.1875 1.6275 28.1875 4.6875 28.1875 C4.6875 23.8975 4.6875 19.6075 4.6875 15.1875 C1.7175 15.1875 -1.2525 15.1875 -4.3125 15.1875 Z M8.6875 15.1875 C8.6875 19.4775 8.6875 23.7675 8.6875 28.1875 C11.6575 28.1875 14.6275 28.1875 17.6875 28.1875 C17.6875 23.8975 17.6875 19.6075 17.6875 15.1875 C14.7175 15.1875 11.7475 15.1875 8.6875 15.1875 Z " fill="#111111" transform="translate(9.3125,-0.1875)"/>
</svg>
