<?xml version="1.0" encoding="UTF-8"?>
<svg version="1.1" xmlns="http://www.w3.org/2000/svg" width="40" height="26">
<path d="M0 0 C8.91 0 17.82 0 27 0 C27 1.65 27 3.3 27 5 C28.03125 4.855625 29.0625 4.71125 30.125 4.5625 C34.04774647 5.00539073 34.79048262 5.1408874 37.4375 7.75 C41.2320723 12.63161159 40.52154443 18.11813781 40 24 C38.35 24 36.7 24 35 24 C35 24.66 35 25.32 35 26 C29.375 26.25 29.375 26.25 26 24 C22.79620876 23.75753217 22.79620876 23.75753217 19.3125 23.875 C18.13300781 23.89304687 16.95351563 23.91109375 15.73828125 23.9296875 C14.38283203 23.96449219 14.38283203 23.96449219 13 24 C13 24.66 13 25.32 13 26 C10.125 26.125 10.125 26.125 7 26 C6.34 25.34 5.68 24.68 5 24 C5.32971479 20.70285207 5.6226839 19.3773161 8 17 C12.55555556 17.55555556 12.55555556 17.55555556 14 19 C16.98889359 19.45765667 19.98969648 19.70320951 23 20 C23 14.39 23 8.78 23 3 C15.41 3 7.82 3 0 3 C0 2.01 0 1.02 0 0 Z M27 9 C27 12.63 27 16.26 27 20 C27.99 19.34 28.98 18.68 30 18 C32.63434254 18.32126128 34.62710097 18.81355048 37 20 C37.3434538 16.30787163 37.221621 14.39209869 35.375 11.125 C33.12317521 8.68799107 33.12317521 8.68799107 29.75 8.6875 C28.38875 8.8421875 28.38875 8.8421875 27 9 Z M9 21 C9.33 21.66 9.66 22.32 10 23 C10.33 22.34 10.66 21.68 11 21 C10.34 21 9.68 21 9 21 Z M31 21 C31.33 21.66 31.66 22.32 32 23 C32.33 22.34 32.66 21.68 33 21 C32.34 21 31.68 21 31 21 Z " fill="#111111" transform="translate(0,0)"/>
<path d="M0 0 C4.95 0 9.9 0 15 0 C14.67 1.32 14.34 2.64 14 4 C9.38 4 4.76 4 0 4 C0 2.68 0 1.36 0 0 Z " fill="#111111" transform="translate(3,5)"/>
<path d="M0 0 C2.12493141 -0.02693575 4.24995912 -0.04636628 6.375 -0.0625 C7.55835938 -0.07410156 8.74171875 -0.08570313 9.9609375 -0.09765625 C13 0 13 0 15 1 C14.67 1.99 14.34 2.98 14 4 C9.05 4 4.1 4 -1 4 C-0.67 2.68 -0.34 1.36 0 0 Z " fill="#111111" transform="translate(1,10)"/>
</svg>
