<?xml version="1.0" encoding="UTF-8"?>
<svg version="1.1" xmlns="http://www.w3.org/2000/svg" width="35" height="33">
<path d="M0 0 C1.03125 0.185625 2.0625 0.37125 3.125 0.5625 C6.76148442 0.97307082 9.45437009 0.778309 13 0 C13.391875 0.61875 13.78375 1.2375 14.1875 1.875 C16.27717491 4.32496368 17.97463327 5.01879998 21 6 C21.12375 7.11375 21.2475 8.2275 21.375 9.375 C21.6465813 13.03103677 21.6465813 13.03103677 24 15 C23.46428571 18.53571429 23.46428571 18.53571429 22 20 C21.9071875 21.670625 21.9071875 21.670625 21.8125 23.375 C21.544375 24.57125 21.27625 25.7675 21 27 C18.0625 28.75 18.0625 28.75 15 30 C14.34 30.99 13.68 31.98 13 33 C10.06640625 33.43359375 10.06640625 33.43359375 6.5625 33.4375 C5.40878906 33.45683594 4.25507813 33.47617187 3.06640625 33.49609375 C-0 33 -0 33 -1.7421875 31.05078125 C-2.15726563 30.37402344 -2.57234375 29.69726562 -3 29 C-5.58498512 27.73152315 -5.58498512 27.73152315 -8 27 C-8.12375 25.88625 -8.2475 24.7725 -8.375 23.625 C-8.6465813 19.96896323 -8.6465813 19.96896323 -11 18 C-10.46428571 14.46428571 -10.46428571 14.46428571 -9 13 C-8.63239269 10.67182036 -8.29758419 8.3381615 -8 6 C-5.69 5.34 -3.38 4.68 -1 4 C-0.67 2.68 -0.34 1.36 0 0 Z M2 4 C1.01 5.485 1.01 5.485 0 7 C-2.125 7.6875 -2.125 7.6875 -4 8 C-5.96740869 14.51704129 -6.47168668 18.52653488 -4 25 C-1.52363988 26.37466625 -1.52363988 26.37466625 1 27 C1.33 27.66 1.66 28.32 2 29 C4.97 29 7.94 29 11 29 C11.33 28.01 11.66 27.02 12 26 C15.0625 24.8125 15.0625 24.8125 18 24 C19.08485996 17.8976627 18.80008784 13.96279096 17 8 C14.525 7.505 14.525 7.505 12 7 C11.67 6.01 11.34 5.02 11 4 C9.54257537 3.91903197 8.08387193 3.86082226 6.625 3.8125 C5.40683594 3.76029297 5.40683594 3.76029297 4.1640625 3.70703125 C3.44992187 3.80371094 2.73578125 3.90039062 2 4 Z " fill="#111111" transform="translate(11,0)"/>
<path d="M0 0 C-0.53651953 4.03314682 -2.54201208 5.94451681 -5.375 8.75 C-6.16648437 9.54921875 -6.95796875 10.3484375 -7.7734375 11.171875 C-10 13 -10 13 -13 13 C-13 10 -13 10 -11.35546875 8.28125 C-10.64003906 7.6934375 -9.92460937 7.105625 -9.1875 6.5 C-6.17056027 4.0034828 -6.17056027 4.0034828 -3.36328125 1.28125 C-2 0 -2 0 0 0 Z " fill="#111111" transform="translate(24,10)"/>
<path d="M0 0 C1.67542976 0.28604898 3.34385343 0.61781233 5 1 C4.67 2.65 4.34 4.3 4 6 C2.125 6.625 2.125 6.625 0 7 C-0.66 6.34 -1.32 5.68 -2 5 C-1.46428571 1.46428571 -1.46428571 1.46428571 0 0 Z " fill="#111111" transform="translate(20,17)"/>
<path d="M0 0 C2.125 0.375 2.125 0.375 4 1 C4.625 2.875 4.625 2.875 5 5 C4.34 5.66 3.68 6.32 3 7 C0.875 6.625 0.875 6.625 -1 6 C-1.625 4.125 -1.625 4.125 -2 2 C-1.34 1.34 -0.68 0.68 0 0 Z " fill="#111111" transform="translate(12,9)"/>
</svg>
