<?xml version="1.0" encoding="UTF-8"?>
<svg version="1.1" xmlns="http://www.w3.org/2000/svg" width="37" height="27">
<path d="M0 0 C12.21 0 24.42 0 37 0 C37 8.91 37 17.82 37 27 C24.79 27 12.58 27 0 27 C0 18.09 0 9.18 0 0 Z M3 3 C3 3.99 3 4.98 3 6 C13.23 6 23.46 6 34 6 C34 5.01 34 4.02 34 3 C23.77 3 13.54 3 3 3 Z M3 13 C3 16.63 3 20.26 3 24 C13.23 24 23.46 24 34 24 C34 20.37 34 16.74 34 13 C23.77 13 13.54 13 3 13 Z " fill="#111111" transform="translate(0,0)"/>
<path d="M0 0 C1.98 0.495 1.98 0.495 4 1 C3.67 2.32 3.34 3.64 3 5 C1.68 4.67 0.36 4.34 -1 4 C-0.67 2.68 -0.34 1.36 0 0 Z " fill="#111111" transform="translate(29,18)"/>
<path d="M0 0 C1.32 0 2.64 0 4 0 C3.67 1.65 3.34 3.3 3 5 C2.01 4.67 1.02 4.34 0 4 C0 2.68 0 1.36 0 0 Z " fill="#111111" transform="translate(23,18)"/>
</svg>
